<?xml version="1.0" encoding="UTF-8" standalone="no"?>
<svg
   xmlns:dc="http://purl.org/dc/elements/1.1/"
   xmlns:cc="http://creativecommons.org/ns#"
   xmlns:rdf="http://www.w3.org/1999/02/22-rdf-syntax-ns#"
   xmlns:svg="http://www.w3.org/2000/svg"
   xmlns="http://www.w3.org/2000/svg"
   xmlns:xlink="http://www.w3.org/1999/xlink"
   xmlns:sodipodi="http://sodipodi.sourceforge.net/DTD/sodipodi-0.dtd"
   xmlns:inkscape="http://www.inkscape.org/namespaces/inkscape"
   viewBox="0 0 547 270"
   preserveAspectRatio="xMinYMin meet"
   id="svg3082"
   version="1.1"
   inkscape:version="0.48.4 r9939"
   sodipodi:docname="powerplanticon.svg">
  <sodipodi:namedview
     pagecolor="#ffffff"
     bordercolor="#666666"
     borderopacity="1"
     objecttolerance="10"
     gridtolerance="10"
     guidetolerance="10"
     inkscape:pageopacity="0"
     inkscape:pageshadow="2"
     inkscape:window-width="1366"
     inkscape:window-height="745"
     id="namedview3177"
     showgrid="false"
     inkscape:zoom="0.4796875"
     inkscape:cx="320"
     inkscape:cy="240"
     inkscape:window-x="-8"
     inkscape:window-y="-8"
     inkscape:window-maximized="1"
     inkscape:current-layer="svg3082" />
  <defs
     id="defs3084">
    <filter
       id="filter3198"
       x="-0.201681"
       width="1.403363"
       y="-0.29629499"
       height="1.592589"
       color-interpolation-filters="sRGB">
      <feGaussianBlur
         stdDeviation="3.248438"
         id="feGaussianBlur3200" />
    </filter>
    <symbol
       id="svg_11">
      <title
         id="title3089">Power source symbols</title>
      <metadata
         id="svg_10">image/svg+xml<rdf:RDF>
  <cc:Work
     rdf:about="">
    <dc:format>image/svg+xml</dc:format>
    <dc:type
       rdf:resource="http://purl.org/dc/dcmitype/StillImage" />
  </cc:Work>
</rdf:RDF>
</metadata>
      <g
         id="svg_13">
        <title
           id="title3093">Layer 1</title>
        <g
           id="svg_2"
           transform="matrix(0.836074,0,0,0.827808,422.958,343.377)">
          <g
             id="svg_8">
            <path
               id="svg_9"
               d="m -207.92635,-236.78235 c 0,73.7536 -59.7891,133.54273 -133.54267,133.54273 -73.75364,0 -133.54273,-59.78914 -133.54273,-133.54273 0,-73.7536 59.78909,-133.54272 133.54273,-133.54272 73.75357,0 133.54267,59.78912 133.54267,133.54272 z"
               stroke-miterlimit="4"
               inkscape:connector-curvature="0"
               style="fill:#ffffff;fill-rule:nonzero;stroke:#000000;stroke-width:3;stroke-miterlimit:4;stroke-dashoffset:0" />
          </g>
          <g
             id="svg_3">
            <path
               id="svg_7"
               d="m -360.98459,-174.90765 c 0,14.2044 -11.51489,25.71936 -25.71933,25.71936 -14.20438,0 -25.7193,-11.51496 -25.7193,-25.71936 0,-14.20441 11.51493,-25.71936 25.7193,-25.71936 14.20444,0 25.71933,11.51495 25.71933,25.71936 z"
               inkscape:connector-curvature="0"
               style="fill:#000000;fill-rule:nonzero;stroke-width:3" />
            <path
               id="svg_6"
               d="m -270.6033,-174.81927 c 0,14.2044 -11.51496,25.71929 -25.71933,25.71929 -14.20438,0 -25.71933,-11.51489 -25.71933,-25.71929 0,-14.20441 11.51495,-25.71936 25.71933,-25.71936 14.20437,0 25.71933,11.51495 25.71933,25.71936 z"
               inkscape:connector-curvature="0"
               style="fill:#000000;fill-rule:nonzero;stroke-width:3" />
            <path
               d="m -448.34378,-269.91968 23.25424,84.11359 11.66171,0 c 11.47016,-26.86969 45.38105,-21.43378 53.69245,0 l 18.26629,0 18.43659,0 c 10.17157,-25.31842 43.96387,-23.83179 53.69241,0 l 11.49146,0 23.25425,-84.11359 -106.87471,0 -106.87469,0 z"
               id="svg_5"
               inkscape:connector-curvature="0"
               style="fill:#000000;fill-rule:nonzero;stroke-width:0.56133097" />
            <path
               d="m -437.37241,-265.35223 c -0.20147,-3.66669 -2.36407,-6.53449 -0.60431,-11 3.62589,-2.55292 7.25181,-2.11884 10.87766,-3 0.38907,-3.05249 0.69467,-6.13459 3.02164,-8.49994 3.22302,-0.48697 6.44601,-0.64875 9.66906,0.49994 -1.34948,-2.89383 -1.25354,-1.71033 -0.5216,-5.24994 0.68646,-4.20709 3.42215,-5.26554 6.04318,-6.5 1.76053,-1.61591 2.42813,-3.33234 9.06476,-4.5 6.3674,2.00757 4.83938,0.79052 6.56473,3.24994 1.20605,0.0444 1.74566,0.77786 1.81295,2 1.33875,-4.4513 4.9397,-5.15931 7.85611,-7 -0.004,-4.39008 -0.0742,-8.79828 2.4173,-12.49994 1.61148,-1.44617 3.22302,-0.54755 4.83453,-0.50006 5.43885,-3.12995 10.87769,-3.62848 16.31656,-4.49994 0.74332,-1.26428 1.70917,-1.88397 3.02158,-1.50006 2.58862,0.27273 7.40869,-0.17188 10.87769,4 7.242,-0.87809 9.77938,3.43386 13.89929,6 0.62384,-3.15046 1.58685,-6.02033 3.62591,-8 5.0777,-0.72614 9.676,-0.13013 13.8993,1.50006 1.81512,2.21374 3.03799,4.20135 3.7359,6.70447 4.55731,0.42688 8.58184,3.0581 12.58068,5.79547 4.7677,-1.05658 8.46329,0.99163 12.69062,1.50006 2.44153,2.0787 2.15783,2.80444 1.81299,3.49994 3.28039,1.40503 6.61303,2.72357 9.06475,5.50006 1.34568,-0.52881 2.98444,0.45837 3.6594,1.17932 0.58133,4.38367 0.16476,2.06518 -0.0335,5.32062 5.89346,1.64383 6.98831,3.08917 7.2518,4.50006 4.71448,0.95184 6.79651,3.45947 9.66913,5.49994 0.98126,1.66674 2.64599,3.33331 1.20862,5 2.22399,0.81231 5.52321,2.68109 5.63475,4.06073 1.2511,2.85766 -0.13062,4.62622 -0.19596,6.93927 l -70.10075,1.50006 -119.65476,-1.50006 z"
               id="svg_4"
               inkscape:connector-curvature="0"
               style="fill:#000000;fill-rule:nonzero;stroke-width:0.56133097" />
          </g>
        </g>
      </g>
    </symbol>
    <symbol
       id="svg_25">
      <title
         id="title3104">coal symbol</title>
      <metadata
         id="svg_24">image/svg+xml</metadata>
      <g
         id="svg_41">
        <title
           id="title3108">Layer 1</title>
        <g
           id="svg_14"
           transform="matrix(1.31244,0,0,1.29743,1206.99,-1434.06)">
          <g
             id="svg_22"
             transform="matrix(0.637037,0,0,0.637037,-211.107,1576.37)">
            <path
               id="svg_23"
               stroke-miterlimit="4"
               d="m -818.48151,-581.50427 c 0,73.75357 -59.78912,133.54269 -133.54278,133.54269 -73.75341,0 -133.54261,-59.78912 -133.54261,-133.54269 0,-73.75354 59.7892,-133.54273 133.54261,-133.54273 73.75366,0 133.54278,59.78919 133.54278,133.54273 z"
               inkscape:connector-curvature="0"
               style="fill:#ffffff;fill-rule:nonzero;stroke:#000000;stroke-width:3;stroke-miterlimit:4;stroke-dashoffset:0" />
          </g>
          <g
             id="svg_15"
             transform="matrix(0.147886,0,0,0.147886,-292.952,1615.27)">
            <path
               id="svg_21"
               d="m -3350.1113,-2682.0027 c 11.4463,3.449 28.2885,16.4631 36.3955,9.1135 7.4197,-8.2009 19.8716,-5.4558 34.0317,-9.1135 25.4238,-5.5681 -18.5278,22.6712 -11.9595,40.3049 47.4336,18.1246 39.0982,20.3716 66.0555,51.2381 14.3591,16.4414 27.3591,50.8576 18.9882,69.6772 35.2347,54.9983 20.0711,81.937 13.2884,102.5305 13.7929,41.0999 0.3716,47.7361 -13.2884,54.4473 -58.323,13.0349 -118.7636,8.0408 -179.5617,0 -19.3926,-2.6892 -73.0279,-54.8677 -31.7581,-99.1162 4.5774,-19.1143 -11.5954,-66.0635 14.9783,-78.4888 5.689,-102.8186 45.322,-61.2627 71.9316,-100.9951 1.2061,-21.98 -39.4218,-41.5574 -19.1015,-39.5979 z"
               inkscape:connector-curvature="0"
               style="fill:#000000;fill-rule:nonzero;stroke-width:0.56133097" />
            <path
               id="svg_20"
               d="m -3436.8069,-2812.9573 c -13.3364,3.3863 -32.4236,10.3272 -34.8931,4.5161 -7.9328,-9.0034 -25.2639,-0.5 -40.4028,-4.5161 -27.1819,-6.1133 19.8086,24.8902 12.7859,44.2503 -56.0347,18.0156 -46.7197,26.5298 -57.5627,49.666 -23.7928,21.8393 -46.7229,62.4231 -33.3606,83.0847 -37.6707,33.8247 -21.4585,87.9651 -14.2066,112.5664 -32.6157,60.7461 -8.5039,59.4954 14.2066,59.7766 62.3554,14.3108 126.9748,8.8279 191.9765,0 20.7332,-2.9524 78.0767,-60.238 33.9536,-108.8181 -4.894,-20.9849 12.3975,-72.5298 -16.0141,-86.1714 -6.082,-112.8823 -48.4553,-67.259 -76.9048,-110.8806 -1.2891,-24.1313 42.1477,-45.625 20.4221,-43.4739 z"
               inkscape:connector-curvature="0"
               style="fill:#000000;fill-rule:nonzero;stroke-width:0.56133097" />
            <g
               id="svg_16"
               transform="matrix(-3.98134,0,0,3.98134,1097.25,-7599.58)">
              <path
                 id="svg_19"
                 d="m 1174.6539,1178.1782 -1.9062,5.125 0.4062,2.3437 6.625,0.2188 0.875,117.4375 c 15.8565,0.6128 34.284,-0.1028 49.2912,0.3567 -2.7105,-2.8694 -4.5724,-5.8153 -4.5724,-10.1693 0,-8.7728 6.7749,-15.9061 15.1562,-15.9061 1.5165,0 2.9932,0.2541 4.375,0.6875 1.8647,-28.8882 3.9761,-57.7746 6,-86.6563 l 4.0625,-5.75 0.1875,-5.7812 -80.5,-1.9063 z"
                 inkscape:connector-curvature="0"
                 style="fill:#000000;stroke:#000000;stroke-width:1px" />
              <path
                 id="svg_18"
                 d="m 1257.3994,1171.646 -52.2281,-61.093 -2.9515,2.4715 2.7601,7.9472 36.9864,51.3757 7.934,2.2252 2.6273,2.8059 4.8718,-5.7325 z"
                 inkscape:connector-curvature="0"
                 style="fill:#000000;stroke:#000000;stroke-width:1px" />
              <path
                 id="svg_17"
                 stroke-miterlimit="4"
                 d="m 1251.1168,1293.4797 c 0,6.1138 -4.7348,11.0699 -10.5755,11.0699 -5.8409,0 -10.5757,-4.9561 -10.5757,-11.0699 0,-6.1137 4.7348,-11.0698 10.5757,-11.0698 5.8407,0 10.5755,4.9561 10.5755,11.0698 z"
                 inkscape:connector-curvature="0"
                 style="fill:#000000;stroke:#000000;stroke-width:3;stroke-miterlimit:4" />
            </g>
          </g>
        </g>
      </g>
    </symbol>
    <symbol
       id="svg_39">
      <title
         id="title3121">trash symbol</title>
      <metadata
         id="svg_38">image/svg+xml</metadata>
      <g
         id="svg_42">
        <title
           id="title3125">Layer 1</title>
        <g
           id="svg_27"
           transform="matrix(1.31246,0,0,1.29741,1111.93,-1112.28)">
          <g
             id="svg_36"
             transform="matrix(0.637037,0,0,0.637037,-555.107,1328.37)">
            <path
               id="svg_37"
               stroke-miterlimit="4"
               d="m -160.6474,-576.71973 c 0,73.7536 -59.78909,133.54273 -133.54272,133.54273 -73.75354,0 -133.54267,-59.78913 -133.54267,-133.54273 0,-73.75354 59.78913,-133.54272 133.54267,-133.54272 73.75363,0 133.54272,59.78918 133.54272,133.54272 z"
               inkscape:connector-curvature="0"
               style="fill:#ffffff;fill-rule:nonzero;stroke:#000000;stroke-width:3;stroke-miterlimit:4;stroke-dashoffset:0" />
          </g>
          <g
             id="svg_28"
             transform="matrix(0.141339,0,0,0.119353,-665.838,1434.63)">
            <path
               id="svg_35"
               d="m -559.16065,-4587.0527 c -128.77795,215.6777 -212.72094,681.8325 -116.54687,912.4062 27.49121,20.6983 66.8916,42.4336 85.18994,36.7539 40.62134,-10.0307 14.87354,-11.0688 52.37585,-1.4209 19.40491,5.6358 63.28711,-11.5356 95.52759,-35.333 96.17432,-230.5737 12.23133,-696.7285 -116.54651,-912.4062 z"
               inkscape:connector-curvature="0"
               style="fill:#000000;fill-rule:nonzero;stroke-width:0.56133097" />
            <path
               id="svg_34"
               d="m -559.16065,-4456.9775 c -78.51293,172.497 -129.69116,545.3237 -71.0559,729.7343 44.78735,-32.9038 96.74023,-32.9243 142.11145,0 58.63537,-184.4106 7.45691,-557.2373 -71.05591,-729.7343 l 3.6e-4,0 z"
               inkscape:connector-curvature="0"
               style="fill:#ffffff;fill-rule:nonzero;stroke-width:0.56133097" />
            <path
               id="svg_33"
               d="m -559.16065,-4282.2017 c -63.75781,135.67 -105.31811,428.8999 -57.70214,573.94 36.3706,-25.8794 78.55957,-25.8955 115.40405,0 47.61572,-145.0401 6.05542,-438.27 -57.7019,-573.94 z"
               inkscape:connector-curvature="0"
               style="fill:#000000;fill-rule:nonzero;stroke-width:0.56133097" />
            <path
               id="svg_32"
               d="m -559.16065,-3992.2896 c -30.39416,65.4673 -50.20654,206.9654 -27.50732,276.9546 17.33814,-12.4878 37.4502,-12.4956 55.01465,0 22.69897,-69.9892 2.88647,-211.4873 -27.50733,-276.9546 z"
               inkscape:connector-curvature="0"
               style="fill:#ffffff;fill-rule:nonzero;stroke-width:0.56133097" />
            <path
               id="svg_31"
               d="m -632.75891,-3674.2661 c 49.06555,17.7305 98.13098,14.9834 147.19604,0 l 0,299.7119 c -62.87268,42.4077 -105.17224,21.6282 -147.19604,0 l 0,-299.7119 z"
               inkscape:connector-curvature="0"
               style="fill:#000000;fill-rule:nonzero;stroke-width:0.56133097" />
            <path
               id="svg_30"
               d="m -504.06103,-3549.7563 127.27929,0 c 16.79138,25.3564 6.10108,35.4448 0,48.0834 l -127.27929,0 0,-48.0834 z"
               inkscape:connector-curvature="0"
               style="fill:#000000;fill-rule:nonzero;stroke-width:0.56133097" />
            <path
               id="svg_29"
               d="m -434.76477,-3461.0645 c -4.87244,-8.986 7.00793,-42.0932 1,-63.1396 12.01855,-21.0469 -3.00525,-50.0601 1,-63.1396 5.53894,-21.231 37.62659,-24.0826 46.08362,-1 3.15039,21.2128 -12.49085,42.4262 0,63.6396 -8.56494,21.2129 3.84936,54.0994 0,63.6396 -0.93225,14.9373 -42.13062,22.3733 -48.08362,0 z"
               inkscape:connector-curvature="0"
               style="fill:#000000;fill-rule:nonzero;stroke-width:0.56133097" />
          </g>
        </g>
      </g>
    </symbol>
    <symbol
       id="svg_49"
       height="510"
       width="273">
      <metadata
         id="svg_48">image/svg+xmlWind Turbine Silhouette2007-03-04Erland Howdenen-AUwind turbinerenewable energyrenewableswindturbineelectricitypowergenerationkinetic energyclimate changeglobal warmingsustainabletechnologyA black silhouette of a single wind turbine seen from ground level and to the left.</metadata>
      <g
         id="svg_46"
         transform="matrix(0.487805,0,0,0.487805,-44.98653,-1.673773)">
        <path
           id="svg_47"
           d="m 413.52508,1038.6812 c 0,0 9.60898,-370.16771 10.79807,-400.80443 1.64249,-42.31482 10.78598,-239.48199 10.72372,-243.34567 -0.10946,-6.7844 -0.17721,-7.02497 -1.97992,-7.02497 -5.86999,0.76041 -11.20837,3.73273 -17.09567,4.41929 -8.17657,-1.77506 -15.89807,-6.16861 -22.78598,-10.85144 -4.1998,-4.7482 -1.5372,-12.68476 0.6594,-18.4394 0.49319,-1.29205 2.47665,-5.09478 3.67971,-8.84811 6.8317,-21.31183 5.9383,-19.40747 10.12766,-21.5911 6.94885,-2.21276 13.50815,3.35196 18.8298,7.47217 l 2.92703,2.33945 c 7.86637,-3.06342 16.28183,-4.51764 23.94001,-8.08408 0.19311,-0.13275 -1.25193,-1.88049 -3.21122,-3.88385 -3.20135,-3.27267 -9.53793,-7.42462 -21.85833,-14.3218 -2.30136,-1.2883 -26.1193,-19.60566 -32.88239,-25.91904 -7.68039,-7.16953 -14.80585,-14.37094 -33.12433,-33.4772 -23.401,-24.40757 -35.33328,-36.2492 -88.93402,-88.25812 -5.83899,-5.66558 -49.30249,-45.08955 -53.41011,-48.7952 -7.5627,-6.8228 -109.13693,-94.023951 -111.82946,-96.382561 -5.37872,-4.7113 -6.57522,-6.375149 -5.8826,-8.18012 1.17372,-3.05854 12.57221,1.02624 23.39194,8.382661 3.18624,2.166439 105.81628,82.59466 111.82423,87.28818 2.87027,2.24232 61.22488,51.11802 64.62948,53.53668 3.87805,2.75535 60.86939,52.16409 67.0329,58.00587 3.37799,3.20137 79.6572,70.44847 93.36829,82.73158 7.18746,6.43897 12.18109,10.28232 14.35681,11.0499 1.83453,0.64734 3.72827,1.48126 4.20776,1.85312 0.47974,0.37189 1.70532,0.8804 2.72324,1.12997 2.32275,0.56958 6.96664,-3.27517 7.75635,-6.42172 1.03439,-4.121 12.35168,-26.32904 15.41696,-30.25229 5.19906,-6.65488 50.2236,-44.53535 54.50595,-47.84714 4.28235,-3.31173 52.08826,-40.91668 53.81494,-42.3536 13.81616,-11.49813 22.50488,-18.09772 24.36212,-18.50458 1.60687,-0.35202 2.435,1.3848 2.44898,5.13641 0.0151,4.00219 -4.06647,10.72333 -11.72736,19.31208 -2.81598,3.15692 -46.50299,54.5148 -49.49097,57.63395 -2.98822,3.11916 -45.8869,51.20073 -54.64117,59.97075 l -15.91699,15.94553 -0.70084,4.61853 c -1.26395,8.3316 -1.98837,10.30154 -5.00595,13.61664 -1.96808,2.38894 -2.24213,5.34011 -1.85232,8.36215 0.33081,2.56595 1.45404,8.96939 3.26879,15.55658 0.6084,2.20782 17.00956,63.86398 17.5922,66.63653 0.70959,3.3794 42.12292,125.1843 43.04706,128.05448 0.92413,2.87024 35.90875,129.23877 36.47461,131.66736 10.11779,37.02264 18.13885,74.57733 26.63501,111.99749 0.90899,4.20923 2.59869,14.90827 3.42132,22.49469 -0.0699,0.73029 -0.45123,1.18934 -1.15179,1.18934 -0.67646,0 -1.43488,-0.63208 -1.68555,-1.40497 -0.25104,-0.77265 -1.72266,-4.6565 -3.2702,-8.6305 -3.74774,-9.6239 -6.9494,-19.49456 -9.85395,-30.37963 -1.315,-4.92811 -22.74346,-80.31336 -24.94799,-88.04078 -2.20484,-7.72741 -39.40992,-130.0014 -41.71924,-137.28729 -11.44898,-36.12042 -42.84659,-127.33468 -47.39502,-137.68869 -7.71985,-18.4606 -14.35925,-37.37152 -22.51142,-55.65088 -2.57348,-5.53094 -3.93096,-7.14911 -5.7246,-8.41952 -1.74784,-1.23804 -3.53217,-2.133 -3.96473,-1.98877 -0.43258,0.14422 -1.75851,2.60229 -2.94626,5.46237 -2.13403,5.13895 -2.15625,5.38446 -1.88058,20.85574 0.15362,8.61057 11.23144,232.64002 11.42374,245.672 l 5.90289,400.62196 c 0,0 -69.91,0.064 -69.91,0.064 z"
           inkscape:connector-curvature="0"
           style="fill:#000000" />
      </g>
    </symbol>
  </defs>
  <metadata
     id="metadata3259">image/svg+xml</metadata>
  <g
     id="g3143"
     transform="translate(-4.1693812,-11.954395)">
    <title
       id="title3145">Layer 1</title>
    <g
       id="layer1">
      <g
         id="g3227"
         transform="translate(-58.371336,-160.52117)"
         style="fill:#f8d400">
        <rect
           ry="7.3943682"
           y="178.28879"
           x="87.265556"
           height="147.74596"
           width="75.49984"
           id="rect3235"
           stroke-miterlimit="4"
           style="fill:#000000;fill-rule:nonzero;stroke:#dcdcdc;stroke-width:6;stroke-linecap:round;stroke-linejoin:round;stroke-miterlimit:4;stroke-dashoffset:0" />
        <path
           id="path3237"
           d="m 143.61975,238.68372 c -8.45155,0.26457 -16.24745,3.74984 -20.06866,9.66677 l -28.404919,43.97312 -6.175049,0 c -10.948082,0 -19.759895,6.22327 -19.759895,13.95508 l 0,114.18478 c 0,7.7319 8.811813,13.95508 19.759895,13.95514 l 496.674998,0 c 10.94799,0 19.75995,-6.22324 19.75995,-13.95514 l 0,-114.18478 c 0,-1.99045 -0.59241,-3.88636 -1.64667,-5.59653 1.55347,-7.38086 -3.59503,-14.9353 -13.48206,-18.38873 L 470.27673,240.42804 c -12.00592,-4.19353 -26.1402,-0.68398 -31.69827,7.92246 l -18.93662,29.36389 -106.82733,-37.28635 c -12.00598,-4.19353 -26.14013,-0.68397 -31.69827,7.92246 l -19.03952,29.36389 -106.82735,-37.28635 c -3.75187,-1.31047 -7.78789,-1.86467 -11.62964,-1.74432 l 0,0 2e-5,0 z"
           stroke-miterlimit="4"
           inkscape:connector-curvature="0"
           style="fill:#000000;fill-rule:nonzero;stroke:#dcdcdc;stroke-width:5.46225786;stroke-linecap:round;stroke-linejoin:round;stroke-miterlimit:4;stroke-dashoffset:0;marker-start:none;marker-mid:none;marker-end:none" />
      </g>
    </g>
  </g>
  <g
     id="g3159"
     transform="translate(-62.540717,-172.47557)">
    <title
       id="title3161">Layer 3</title>
    <use
       x="4.3306851"
       y="-20"
       transform="matrix(0.452104,0,0,0.421466,84.6007,303.588)"
       xlink:href="#svg_11"
       id="svg_12"
       width="640"
       height="480" />
    <use
       id="svg_26"
       xlink:href="#svg_25"
       transform="matrix(0.4654,0,0,0.399661,-3.82182,21.8132)"
       y="706"
       x="473.27118"
       width="640"
       height="480" />
  </g>
  <g
     id="g3165"
     transform="translate(-62.540717,-172.47557)">
    <title
       id="title3167">Layer 4</title>
    <use
       id="svg_40"
       xlink:href="#svg_39"
       transform="scale(0.431595,0.392359)"
       y="772"
       x="796.46057"
       width="640"
       height="480" />
  </g>
  <g
     id="g3170"
     transform="translate(-62.540717,-172.47557)">
    <title
       id="title3172">Layer 5</title>
    <g
       id="svg_51">
      <circle
         id="svg_43"
         r="48.559479"
         cy="355.5"
         cx="527.5"
         d="m 576.05948,355.5 c 0,26.81866 -21.74082,48.55948 -48.55948,48.55948 -26.81866,0 -48.55948,-21.74082 -48.55948,-48.55948 0,-26.81866 21.74082,-48.55948 48.55948,-48.55948 26.81866,0 48.55948,21.74082 48.55948,48.55948 z"
         sodipodi:cx="527.5"
         sodipodi:cy="355.5"
         sodipodi:rx="48.559479"
         sodipodi:ry="48.559479"
         style="fill:#f9f9d9;stroke:#000000;stroke-width:0" />
      <use
         x="1891.6727"
         y="1933.2502"
         transform="matrix(0.247142,0,0,0.142514,29.0806,50.074)"
         xlink:href="#svg_49"
         id="svg_50"
         style="fill:#efefde"
         width="640"
         height="480" />
    </g>
  </g>
</svg>
